<?xml version="1.0" encoding="UTF-8" standalone="no"?>
<svg
   xmlns:dc="http://purl.org/dc/elements/1.1/"
   xmlns:cc="http://creativecommons.org/ns#"
   xmlns:rdf="http://www.w3.org/1999/02/22-rdf-syntax-ns#"
   xmlns:svg="http://www.w3.org/2000/svg"
   xmlns="http://www.w3.org/2000/svg"
   id="svg54"
   version="1.1"
   style="overflow:visible"
   viewBox="-219 -182 435 362"
   height="1448px"
   width="1740px">
  <metadata
     id="metadata60">
    <rdf:RDF>
      <cc:Work
         rdf:about="">
        <dc:format>image/svg+xml</dc:format>
        <dc:type
           rdf:resource="http://purl.org/dc/dcmitype/StillImage" />
      </cc:Work>
    </rdf:RDF>
  </metadata>
  <defs
     id="defs58" />
  <rect
     id="rect2"
     fill-opacity="0"
     fill="rgb(0,0,0)"
     height="362"
     width="435"
     y="-182"
     x="-219" />
  <svg
     id="svg52"
     version="1.1"
     y="-250"
     x="-250"
     viewBox="-250 -250 500 500"
     height="500"
     width="500"
     style="overflow:visible">
    <g
       style="fill:#ffffff;stroke-linejoin:round"
       id="g50">
      <path
         style="fill:#fff7e1;fill-opacity:1;stroke:none;stroke-linecap:butt;stroke-linejoin:round"
         id="path4"
         d="m -120.56,63.67 c -1.1683,24.746 -2.4125,59.972 -7.7559,67.301 -0.5115,0.7016 -1.0971,1.3711 -1.7363,2.0195 5.5541,5.327 11.72,4.5269 18.002,2.5742 0.2623,-7.243 4.18,-21.033 9.5566,-33.127 3.7299,-8.389802 5.2363,-21.809002 6.0762,-32.061002 l -24.143,-6.707 z" />
      <path
         style="fill:#fff7e1;fill-opacity:1;stroke:none;stroke-linecap:butt;stroke-linejoin:round"
         id="path6"
         d="m -130.05,132.99 c -8.4348,8.5573 -27.146,12.614 -34.191,15.279 -6.345,2.4001 1.0897,7.5526 9.0122,7.5757 5.0588,0.0149 12.699,-3.8909 20.482,-3.8909 7.7833,0 18.546,3.6924 21.823,-0.1982 3.2772,-3.8905 1.0362,-10.529 0.8767,-14.831 -0.0157,-0.4226 -0.014,-0.878 0,-1.3614 l -18.007,-2.573 z" />
      <path
         style="fill:none;stroke:#888888;stroke-width:3;stroke-linecap:butt;stroke-linejoin:miter;stroke-opacity:1"
         id="path8"
         d="m -120.56,63.67 c -1.1679,24.746 -2.4125,59.972 -7.7559,67.301 -7.2617,9.9596 -28.349,14.432 -35.928,17.299 -6.345,2.4001 1.0892,7.5531 9.0117,7.5762 5.0588,0.0149 12.699,-3.8906 20.482,-3.8906 7.7834,0 18.545,3.6913 21.822,-0.1992 3.2772,-3.8905 1.0383,-10.53 0.8789,-14.832 -0.2503,-6.7557 3.8216,-21.586 9.5566,-34.486 3.7299,-8.3898 5.2384,-21.807 6.0781,-32.059 l -24.146,-6.709 z" />
      <path
         style="fill:#fff7e1;fill-opacity:1;stroke:none;stroke-linecap:butt;stroke-linejoin:round"
         id="path10"
         d="m 79.34,88.34 c 4.4927,1.7049 10.603,3.7072 23.852,11.287 24.04,13.754 47.126,28.49 50.254,33.248 5.1355,-1.6304 6.7974,-5.4427 7.875,-9.623 -4.2115,-2.5513 -22.934,-25.247001 -38.064,-37.033001 -5.4141,-4.2176 -24.724,-14.751 -34.027,-20.029 l -9.8887,22.15 z" />
      <path
         style="fill:#fff7e1;fill-opacity:1;stroke:none;stroke-linecap:butt;stroke-linejoin:round"
         id="path12"
         d="m 161.32,123.25 -7.876,9.6235 c 0.0503,0.0767 0.1115,0.1574 0.1515,0.2288 6.6194,11.805 -3.4774,23.585 -0.8187,25.596 7.5785,5.7335 18.434,-0.4096 20.482,-2.2524 2.0483,-1.8429 2.2538,-16.381 1.0249,-19.862 -1.229,-3.481 -5.9411,-5.9389 -7.1701,-7.9865 -1.229,-2.0477 -2.2524,-4.2996 -5.3248,-5.1187 -0.1256,-0.0338 -0.2894,-0.1198 -0.469,-0.2288 z" />
      <path
         style="fill:none;stroke:#888888;stroke-width:3;stroke-linecap:butt;stroke-linejoin:miter;stroke-opacity:1"
         id="path14"
         d="m 79.34,88.34 c 4.4925,1.7052 10.601,3.707 23.854,11.289 24.421,13.972 47.876,28.97 50.404,33.479 6.6194,11.805 -3.479,23.584 -0.8203,25.596 7.5785,5.7335 18.434,-0.4111 20.482,-2.2539 2.0483,-1.8428 2.2543,-16.38 1.0254,-19.861 -1.229,-3.481 -5.9409,-5.9387 -7.1699,-7.9863 -1.229,-2.0477 -2.2538,-4.3001 -5.3262,-5.1191 -3.0724,-0.8191 -22.76,-24.974 -38.531,-37.26 -5.4145,-4.2179 -24.727,-14.753 -34.029,-20.031 l -9.8887,22.148 z" />
      <path
         style="fill:#fff7e1;fill-opacity:1;stroke:#888888;stroke-width:3;stroke-linecap:butt;stroke-linejoin:miter;stroke-opacity:1"
         id="path16"
         d="m -28.06,-20.15 c -0.1186,12.715 0.4811,21.84 1.5157,28.79 l 51.967,-3.6799 c -3.5126,-8.8535 -5.0626,-17.118 -2.8148,-24.244 z" />
      <path
         style="fill:#cfebff;fill-opacity:1;stroke:none;stroke-linecap:butt;stroke-linejoin:round"
         id="path18"
         d="m -44.15,8.039999 c -23.875,7.1092 -70.984,18.312 -77.777,24.125 -4.6133,3.9481 -4.1258,35.471 -4.1258,35.471 10.626,6.208 22.409,4.3128 33.831,4.9495 v -12.374 l 90.767,-14.848 63.537,38.771 18.979,14.023 c 10.987,-7.3666 16.504999,-18.834 20.629,-31.347 l -23.929,-13.199 -44.618,-42.715 z" />
      <path
         style="fill:#c5c5c5;fill-opacity:1;stroke:#888888;stroke-width:3;stroke-linecap:butt;stroke-linejoin:miter;stroke-opacity:1"
         id="path20"
         d="m 29.4,-145.44 a 9.2428,9.2401 0 0 1 -9.2428,9.2401 9.2428,9.2401 0 0 1 -9.2428,-9.2401 9.2428,9.2401 0 0 1 9.2428,-9.2401 9.2428,9.2401 0 0 1 9.2428,9.2401 z" />
      <path
         style="fill:#fff7e1;fill-opacity:1;stroke:none;stroke-linecap:butt;stroke-linejoin:round"
         id="path22"
         d="m 156.23,-99.62 c -5.4356,0.1288 -8.5725,1.8784 -11.813,2.6407 -0.743,2.6879 -0.9364,5.3759 2.2692,8.0638 2.407,-0.5738 4.8842,-1.1735 7.5875,-1.8609 0,0 7.2364,4.2614 11.992,3.8555 4.7559,-0.4059 16.957,1.8265 17.37,0 0.4137,-1.8265 -7.0315,-3.4495 -7.0315,-3.4495 0,0 17.99,-2.0292 18.817,-4.6675 0.8271,-2.6383 -5.1697,-1.4211 -9.5118,-1.624 -4.3422,-0.203 -19.145,-1.8732 -24.606,-2.6391 -1.8997,-0.2664 -3.5739,-0.3545 -5.0734,-0.319 z" />
      <path
         style="fill:#fff7e1;fill-opacity:1;stroke:none;stroke-linecap:butt;stroke-linejoin:round"
         id="path24"
         d="m 34.96,-99.41 c -9.7355,0.0729 -19.489,2.3104 -19.489,2.3104 -2.7295,16.768 -1.8078,33.161 9.6665,43.2 0,0 9.2098,-21.043 14.379,-24.29 3.5049,-2.2016 44.869,-1.4218 53.14,-4.060101 13.462,-3.3128 11.52,3.4724 54.03,-6.6621 l -2.2692,-8.063801 c -0.6331,0.1489 -1.2702,0.2635 -1.9291,0.3174 -4.9625,0.4059 -37.025,-0.8256 -47.558,1.218 -18.704,3.6291 -36.834,-2.0437 -55.828,-3.8571 -1.3615,-0.0908 -2.7511,-0.1232 -4.1419,-0.1128 z" />
      <path
         style="fill:none;stroke:#888888;stroke-width:3;stroke-linecap:butt;stroke-linejoin:round;stroke-opacity:1"
         id="path26"
         d="m 15.47,-97.1 c 0,0 12.739,-2.9224 23.632,-2.1963 18.995,1.8134 37.124,7.4851 55.828,3.856 10.532,-2.0436 42.595,-0.8118 47.557,-1.2177 4.9624,-0.4059 8.6842,-4.0589 18.816,-2.6383 5.4619,0.7658 20.264,2.4354 24.606,2.6383 4.3421,0.203 10.339,-1.0147 9.5114,1.6236 -0.8271,2.6383 -18.816,4.6678 -18.816,4.6678 0,0 7.4439,1.6236 7.0302,3.4501 -0.4135,1.8265 -12.613,-0.4059 -17.369,0 -4.7557,0.4059 -11.993,-3.856 -11.993,-3.856 -50.448,12.828 -47.393,5.0235 -61.618,8.5238 -8.2708,2.6383 -49.635,1.8573 -53.14,4.0589 -5.1692,3.2472 -14.379,24.29 -14.379,24.29 -11.474,-10.039 -12.396,-26.433 -9.6662,-43.201 z" />
      <path
         style="fill:#fff7e1;fill-opacity:1;stroke:none;stroke-linecap:butt;stroke-linejoin:round"
         id="path28"
         d="m -157.805,-99.57 c -1.0797,0.0241 -2.2454,0.1095 -3.5117,0.2739 -5.4611,0.7092 -20.258,2.2266 -24.595,2.3845 -4.3373,0.158 -10.312,-1.1226 -9.5134,1.5242 0.7985,2.6467 18.738,4.8625 18.738,4.8625 0,0 -7.448,1.5463 -7.0541,3.377 0.3939,1.8307 12.597,-0.2747 17.341,0.1805 4.744,0.4552 12.013,-3.7314 12.013,-3.7314 2.4966,0.6635 4.765,1.2352 7.0074,1.798 5.2349,-1.9943 3.8186,-5.0968 1.1459,-8.4086 -2.9766,-0.9738 -6.2198,-2.3798 -11.572,-2.2604 z" />
      <path
         style="fill:#fff7e1;fill-opacity:1;stroke:none;stroke-linecap:butt;stroke-linejoin:round"
         id="path30"
         d="m -35.34,-98.14 c -1.2799,0.003 -2.6075,0.0377 -3.9678,0.1144 -18.984,1.6165 -37.144,7.1014 -55.78,3.2787 -10.495,-2.1526 -42.518,-1.2538 -47.469,-1.711 -1.2647,-0.1168 -2.4488,-0.4459 -3.6761,-0.8475 l -1.1459,8.4086 c 42.878,10.762 40.963,3.8967 54.425,7.363 8.230499,2.7239 49.538,2.3717 53.015,4.6095 5.1273,3.3005 7.9308,11.652 7.9308,11.652 l 12.302,-31.332 c 0,0 -6.6737,-1.5568 -15.633,-1.5354 z" />
      <path
         style="fill:none;stroke:#888888;stroke-width:3;stroke-linecap:butt;stroke-linejoin:round;stroke-opacity:1"
         id="path32"
         d="m -19.71,-96.61 c 0,0 -8.7168,-2.034401 -19.6,-1.4212 -18.984,1.6165 -37.144,7.1 -55.78,3.2773 -10.495,-2.1526 -42.519,-1.2531 -47.47,-1.7104 -4.9504,-0.4573 -8.6285,-4.1487 -18.759,-2.8331 -5.4611,0.7092 -20.257,2.2253 -24.594,2.3832 -4.3373,0.158 -10.312,-1.1218 -9.5133,1.5249 0.7985,2.6468 18.738,4.8625 18.738,4.8625 0,0 -7.449,1.5464 -7.0551,3.3771 0.3939,1.8307 12.597,-0.2752 17.342,0.18 4.744,0.4552 12.014,-3.7315 12.014,-3.7315 50.235,13.35 47.266,5.5143 61.432,9.1618 8.230499,2.7239 49.538,2.3715 53.014,4.6094 5.1273,3.3005 7.9313,11.651 7.9313,11.651 z" />
      <path
         style="fill:#c5c5c5;fill-opacity:1;stroke:#888888;stroke-width:3;stroke-linecap:butt;stroke-linejoin:miter;stroke-opacity:1"
         id="path34"
         d="m -28.77,-142.22 c -1.2358,-16.947 17.996,-21.788 29.164,-17.218 25.646,10.496 22.382,38.101 -0.3967,47.628 z" />
      <path
         style="fill:#fff7e1;fill-opacity:1;stroke:none;stroke-linecap:butt;stroke-linejoin:round"
         id="path36"
         d="m -24.75,-149 c -3.4444,3.4359 -6.354,9.1924 -5.5113,14.922 0.6292,4.2779 -1.9134,5.5481 -4.4779,8.9531 1.3938,2.2378 1.6644,1.5714 2.9852,2.8696 l -0.3445,2.9844 3.4446,1.7218 -1.1482,1.9513 1.837,2.1809 c 0,0 -0.0644,3.6748 1.263,4.4766 2.0672,1.2486 9.3114,-1.8574 11.711,0.5739 4.6541,5.4724 1.2903,8.2231 -6.315,10.445 l -7.1303,30.718 43.757,3.6025 0.1149,-35.583 c -8.553,-3.066 -13.16,-5.1578 -13.089,-15.725 -2.9632,-1.1667 -4.1169,-3.8839 -4.9371,-6.887 8.4568,-2.327 4.6148,-10.744 0.9185,-11.593 -2.5221,-0.5797 -5.2816,5.7392 -5.2816,5.7392 -1.881,-12.119 -7.932,-10.088 -17.797,-21.35 z" />
      <path
         style="fill:#c0d8e9;fill-opacity:1;stroke:none;stroke-linecap:butt;stroke-linejoin:round"
         id="path38"
         d="m 15.39,-85.24 c -13.571,5.6818 -27.125,11.053 -39.761,0.5252 l -4.0661,17.52 41.09,3.3834 2.6801,-3.8507 0.0561,-17.578 z" />
      <path
         style="fill:none;stroke:#888888;stroke-width:3;stroke-linecap:butt;stroke-linejoin:round;stroke-opacity:1"
         id="path40"
         d="m -24.75,-149 c -3.4444,3.4359 -6.354,9.1924 -5.5113,14.922 0.6292,4.2779 -1.9134,5.5481 -4.4779,8.9531 1.3938,2.2378 1.6644,1.5714 2.9852,2.8696 l -0.3445,2.9844 3.4446,1.7218 -1.1482,1.9513 1.837,2.1809 c 0,0 -0.0644,3.6748 1.263,4.4766 2.0672,1.2486 9.3114,-1.8574 11.711,0.5739 4.6541,5.4724 1.2903,8.2231 -6.315,10.445 l -7.1303,30.718 43.757,3.6025 0.1149,-35.583 c -8.553,-3.066 -13.16,-5.1578 -13.089,-15.725 -2.9632,-1.1667 -4.1169,-3.8839 -4.937,-6.887 8.4568,-2.327 4.6148,-10.744 0.9185,-11.593 -2.5221,-0.5797 -5.2816,5.7392 -5.2816,5.7392 -1.881,-12.119 -7.932,-10.088 -17.797,-21.35 z" />
      <path
         style="fill:#cfebff;fill-opacity:1;stroke:#888888;stroke-width:3;stroke-linecap:butt;stroke-linejoin:round;stroke-opacity:1"
         id="path42"
         d="m -18.78,-100.21 c -11.935,48.662 25.825,38.189 32.073999,-0.9712 l 5.586,1.4303 c 0,0 -5.6645,28.147 9.5298,45.11 -0.2188,5.3205 -4.278,9.9585 -4.7075,15.266 -0.81,10.01 2.8973,23.138 2.8973,23.138 -18.307,4.5261 -42.056,5.4512 -59.679,-0.3732 2.0667,-12.205 2.653,-8.6981 3.0476,-23.913 0.2185,-8.4251 -6.1259,-13.366 -7.1187,-25.826 -0.9466,-11.881 9.813,-21.396 13.893,-32.369 z" />
      <path
         style="fill:#c0d8e9;fill-opacity:1;stroke:none;stroke-linecap:butt;stroke-linejoin:round"
         id="path44"
         d="m 23.85,-4.67 c -20.313,1.8851 -39.148,2.8206 -53.137,0.6412 l -1.4698,7.1729 c -1.4969,1.1375 -6.5388,2.8602 -13.393,4.9011 14.695,10.923 46.822,10.138 77.292,2.8582 l -5.7309,-5.486 z" />
      <path
         style="fill:none;stroke:#888888;stroke-width:3;stroke-linecap:butt;stroke-linejoin:round;stroke-opacity:1"
         id="path46"
         d="m -126.05,67.64 c 10.626,6.208 22.409,4.3128 33.831,4.9495 v -12.374 l 90.767,-14.848 63.537,38.771 18.979,14.023 c 10.987,-7.3666 16.504999,-18.834 20.629,-31.347 L 77.764,53.6155 27.415,5.4145 23.8536,-4.6735 c -20.313,1.8851 -39.149,2.8215 -53.138,0.6422 l -1.4694,7.1731 c -6.7113,5.1 -82.426,21.544 -91.169,29.026 -4.6133,3.948 -4.1258,35.471 -4.1258,35.471 z" />
      <path
         style="fill:#c0d8e9;fill-opacity:1;stroke:none;stroke-linecap:butt;stroke-linejoin:round"
         id="path48"
         d="m -27.96,-50.4 c 4.5336,6.1393 33.506,3.0702 49.107,-0.7662 0.7361,1.4722 -44.544,22.925 -44.641,14.503 -0.0452,-3.9016 -2.4651,-13.737 -4.4663,-13.737 z" />
    </g>
  </svg>
</svg>
